<svg width="435" height="322" viewBox="0 0 435 322" fill="none" xmlns="http://www.w3.org/2000/svg">
<rect width="426" height="284.653" transform="translate(4.73999 10)" fill="white"/>
<line x1="391.006" y1="19.4142" x2="391.006" y2="212.181" stroke="#DCDCDC" stroke-width="1.79318"/>
<path d="M44.922 19.4142L44.922 212.181" stroke="#DCDCDC" stroke-width="1.79318"/>
<rect x="34.6138" y="230.8" width="363.65" height="67.0429" rx="20.4225" transform="rotate(-1.08084 34.6138 230.8)" stroke="#E6E6E6" stroke-width="7.85479"/>
<path d="M148.748 276.177L145.285 276.242L144.803 250.691L148.266 250.626L148.474 261.617L161.125 261.378L160.918 250.387L164.381 250.322L164.864 275.873L161.4 275.938L161.186 264.594L148.534 264.833L148.748 276.177ZM176.982 276.069C171.893 276.165 168.325 272.555 168.224 267.183C168.122 261.776 171.479 257.966 176.497 257.871C181.409 257.778 184.689 261.11 184.786 266.235L184.809 267.472L171.452 267.759C171.768 271.394 173.714 273.373 177.001 273.311C179.58 273.262 181.257 272.17 181.785 270.18L184.895 270.121C184.117 273.848 181.258 275.988 176.982 276.069ZM176.55 260.663C173.652 260.718 171.847 262.484 171.48 265.531L181.446 265.343C181.392 262.481 179.483 260.608 176.55 260.663ZM191.357 275.373L188.035 275.436L187.544 249.425L190.866 249.363L191.357 275.373ZM198.933 275.23L195.611 275.293L195.12 249.282L198.442 249.22L198.933 275.23ZM201.822 266.514C201.722 261.178 205.468 257.36 210.663 257.262C215.822 257.164 219.71 260.838 219.811 266.175C219.911 271.511 216.165 275.329 211.006 275.427C205.81 275.525 201.923 271.851 201.822 266.514ZM205.18 266.451C205.248 270.056 207.592 272.521 210.949 272.458C214.271 272.395 216.557 269.842 216.489 266.238C216.421 262.633 214.041 260.168 210.719 260.23C207.361 260.294 205.112 262.846 205.18 266.451ZM230.63 255.966C230.547 251.584 234.025 248.548 239.291 248.449C244.168 248.357 247.365 251.019 247.731 255.431L244.232 255.497C244.007 252.956 242.177 251.506 239.314 251.56C236.099 251.62 234.044 253.285 234.091 255.794C234.13 257.844 235.32 259.059 237.734 259.579L241.958 260.489C246.146 261.365 248.309 263.587 248.377 267.191C248.464 271.786 244.95 274.786 239.507 274.889C234.312 274.987 230.797 272.331 230.503 267.953L234.037 267.886C234.153 270.323 236.233 271.84 239.448 271.779C242.841 271.715 244.967 270.084 244.919 267.539C244.881 265.525 243.761 264.273 241.312 263.754L237.089 262.879C232.901 262.004 230.699 259.641 230.63 255.966ZM259.056 274.52C253.967 274.616 250.399 271.007 250.297 265.635C250.195 260.228 253.553 256.417 258.571 256.323C263.483 256.23 266.763 259.562 266.86 264.686L266.883 265.923L253.525 266.21C253.841 269.846 255.788 271.824 259.074 271.762C261.654 271.714 263.33 270.621 263.859 268.632L266.968 268.573C266.19 272.3 263.332 274.439 259.056 274.52ZM258.624 259.114C255.726 259.169 253.921 260.935 253.554 263.983L263.52 263.795C263.466 260.932 261.557 259.059 258.624 259.114ZM268.04 281.669L267.989 278.947L270.215 278.905C271.805 278.875 273.073 278.604 273.844 276.398L274.414 274.725L267.109 256.656L270.607 256.59L275.888 270.42L280.75 256.399L284.178 256.334L276.414 277.657C275.303 280.648 273.595 281.917 270.945 281.967C269.849 281.988 268.928 281.864 268.04 281.669ZM287.672 252.167C286.47 252.19 285.462 251.219 285.439 250.018C285.416 248.781 286.387 247.808 287.589 247.785C288.79 247.763 289.798 248.698 289.821 249.935C289.844 251.137 288.873 252.145 287.672 252.167ZM286.449 273.579L286.123 256.298L289.445 256.235L289.771 273.516L286.449 273.579Z" fill="black"/>
<rect x="27.4385" y="223.386" width="377.264" height="67.763" rx="21.1502" transform="rotate(-1.08084 27.4385 223.386)" stroke="#EDEDED" stroke-width="8.1347"/>
<path d="M145.625 269.546L142.038 269.614L141.539 243.152L145.125 243.085L145.34 254.467L158.443 254.22L158.228 242.838L161.815 242.77L162.314 269.231L158.727 269.299L158.506 257.551L145.403 257.798L145.625 269.546ZM174.864 269.434C169.594 269.533 165.899 265.795 165.794 260.232C165.688 254.632 169.165 250.686 174.362 250.588C179.45 250.492 182.847 253.943 182.947 259.25L182.971 260.531L169.137 260.828C169.464 264.593 171.48 266.642 174.884 266.578C177.555 266.527 179.292 265.396 179.838 263.336L183.059 263.275C182.253 267.134 179.293 269.35 174.864 269.434ZM174.417 253.479C171.416 253.536 169.546 255.365 169.167 258.521L179.488 258.326C179.432 255.362 177.455 253.422 174.417 253.479ZM189.752 268.714L186.311 268.779L185.803 241.841L189.244 241.776L189.752 268.714ZM197.598 268.566L194.158 268.631L193.649 241.693L197.09 241.628L197.598 268.566ZM200.59 259.539C200.486 254.013 204.365 250.058 209.745 249.957C215.089 249.856 219.115 253.661 219.219 259.188C219.323 264.714 215.444 268.668 210.1 268.769C204.72 268.871 200.694 265.066 200.59 259.539ZM204.067 259.474C204.137 263.207 206.565 265.76 210.042 265.695C213.483 265.63 215.849 262.986 215.779 259.253C215.708 255.519 213.244 252.966 209.803 253.031C206.326 253.097 203.997 255.74 204.067 259.474ZM230.424 248.615C230.339 244.077 233.941 240.933 239.394 240.83C244.445 240.735 247.755 243.492 248.134 248.061L244.511 248.129C244.278 245.498 242.383 243.996 239.418 244.052C236.088 244.115 233.96 245.839 234.009 248.437C234.049 250.56 235.281 251.818 237.781 252.357L242.156 253.3C246.493 254.206 248.733 256.507 248.804 260.24C248.893 264.998 245.254 268.106 239.618 268.212C234.238 268.314 230.598 265.563 230.292 261.029L233.952 260.96C234.073 263.484 236.226 265.054 239.557 264.992C243.07 264.925 245.272 263.236 245.222 260.601C245.183 258.515 244.023 257.219 241.487 256.681L237.113 255.775C232.776 254.868 230.496 252.421 230.424 248.615ZM259.863 267.83C254.592 267.93 250.897 264.192 250.792 258.629C250.687 253.029 254.164 249.082 259.361 248.984C264.448 248.888 267.845 252.339 267.945 257.646L267.969 258.927L254.135 259.225C254.463 262.99 256.478 265.038 259.882 264.974C262.554 264.924 264.29 263.793 264.837 261.732L268.058 261.671C267.252 265.531 264.291 267.747 259.863 267.83ZM259.415 251.876C256.414 251.932 254.545 253.762 254.165 256.917L264.486 256.723C264.43 253.758 262.453 251.818 259.415 251.876ZM269.167 275.234L269.114 272.415L271.42 272.372C273.067 272.341 274.38 272.06 275.179 269.775L275.768 268.043L268.203 249.33L271.826 249.262L277.295 263.584L282.33 249.064L285.88 248.997L277.839 271.079C276.69 274.176 274.92 275.491 272.175 275.543C271.041 275.564 270.086 275.436 269.167 275.234ZM289.498 244.681C288.254 244.705 287.21 243.699 287.186 242.455C287.162 241.174 288.168 240.166 289.413 240.143C290.657 240.119 291.701 241.088 291.725 242.369C291.748 243.614 290.743 244.658 289.498 244.681ZM288.233 266.856L287.895 248.959L291.335 248.894L291.673 266.791L288.233 266.856Z" fill="black"/>
<g filter="url(#filter0_d_30_2050)">
<rect x="20.9012" y="211.286" width="391.345" height="76.8977" rx="25.6514" transform="rotate(-1.08084 20.9012 211.286)" fill="white" shape-rendering="crispEdges"/>
<rect x="25.1158" y="215.344" width="383.07" height="68.6231" rx="21.5141" transform="rotate(-1.08084 25.1158 215.344)" stroke="#F3F3F3" stroke-width="8.27465" shape-rendering="crispEdges"/>
</g>
<g filter="url(#filter1_d_30_2050)">
<rect x="37.0768" y="9.99998" width="16.5525" height="16.5525" rx="8.27623" fill="#F3F3F3"/>
</g>
<g filter="url(#filter2_d_30_2050)">
<rect x="383.575" y="9.99998" width="16.5525" height="16.5525" rx="8.27623" fill="#F3F3F3"/>
</g>
<defs>
<filter id="filter0_d_30_2050" x="-0.281919" y="195.133" width="435.092" height="126.632" filterUnits="userSpaceOnUse" color-interpolation-filters="sRGB">
<feFlood flood-opacity="0" result="BackgroundImageFix"/>
<feColorMatrix in="SourceAlpha" type="matrix" values="0 0 0 0 0 0 0 0 0 0 0 0 0 0 0 0 0 0 127 0" result="hardAlpha"/>
<feOffset dy="12.412"/>
<feGaussianBlur stdDeviation="10.5916"/>
<feComposite in2="hardAlpha" operator="out"/>
<feColorMatrix type="matrix" values="0 0 0 0 0 0 0 0 0 0 0 0 0 0 0 0 0 0 0.03 0"/>
<feBlend mode="normal" in2="BackgroundImageFix" result="effect1_dropShadow_30_2050"/>
<feBlend mode="normal" in="SourceGraphic" in2="effect1_dropShadow_30_2050" result="shape"/>
</filter>
<filter id="filter1_d_30_2050" x="18.7864" y="-4.70411" width="53.1334" height="53.1334" filterUnits="userSpaceOnUse" color-interpolation-filters="sRGB">
<feFlood flood-opacity="0" result="BackgroundImageFix"/>
<feColorMatrix in="SourceAlpha" type="matrix" values="0 0 0 0 0 0 0 0 0 0 0 0 0 0 0 0 0 0 127 0" result="hardAlpha"/>
<feOffset dy="3.58637"/>
<feGaussianBlur stdDeviation="9.14523"/>
<feComposite in2="hardAlpha" operator="out"/>
<feColorMatrix type="matrix" values="0 0 0 0 0 0 0 0 0 0 0 0 0 0 0 0 0 0 0.1 0"/>
<feBlend mode="normal" in2="BackgroundImageFix" result="effect1_dropShadow_30_2050"/>
<feBlend mode="normal" in="SourceGraphic" in2="effect1_dropShadow_30_2050" result="shape"/>
</filter>
<filter id="filter2_d_30_2050" x="365.284" y="-4.70411" width="53.1334" height="53.1334" filterUnits="userSpaceOnUse" color-interpolation-filters="sRGB">
<feFlood flood-opacity="0" result="BackgroundImageFix"/>
<feColorMatrix in="SourceAlpha" type="matrix" values="0 0 0 0 0 0 0 0 0 0 0 0 0 0 0 0 0 0 127 0" result="hardAlpha"/>
<feOffset dy="3.58637"/>
<feGaussianBlur stdDeviation="9.14523"/>
<feComposite in2="hardAlpha" operator="out"/>
<feColorMatrix type="matrix" values="0 0 0 0 0 0 0 0 0 0 0 0 0 0 0 0 0 0 0.1 0"/>
<feBlend mode="normal" in2="BackgroundImageFix" result="effect1_dropShadow_30_2050"/>
<feBlend mode="normal" in="SourceGraphic" in2="effect1_dropShadow_30_2050" result="shape"/>
</filter>
</defs>
</svg>
