<svg width="16" height="16" viewBox="0 0 16 16" fill="none" xmlns="http://www.w3.org/2000/svg">
<path d="M3.52288 12.1379H4.35831M11.0418 8.79617H13.1303C14.0531 8.79617 14.8012 9.54424 14.8012 10.467V12.9733C14.8012 13.8961 14.0531 14.6442 13.1303 14.6442H4.35831M7.28232 4.04547L9.85049 1.4773C10.503 0.824788 11.5609 0.824786 12.2134 1.4773L13.9857 3.24952C14.6382 3.90203 14.6382 4.95996 13.9857 5.61247L6.8646 12.7335M2.68744 14.6442H5.19374C6.11653 14.6442 6.8646 13.8961 6.8646 12.9733V2.94815C6.8646 2.02536 6.11653 1.27729 5.19374 1.27729H2.68744C1.76465 1.27729 1.01658 2.02536 1.01658 2.94815V12.9733C1.01658 13.8961 1.76465 14.6442 2.68744 14.6442Z" stroke="black" stroke-width="1.4359" stroke-linecap="round" stroke-linejoin="round"/>
</svg>
