<svg width="29" height="30" viewBox="0 0 29 30" fill="none" xmlns="http://www.w3.org/2000/svg">
<path d="M27.0013 15.3557C27.0013 14.3325 26.9165 13.5858 26.7332 12.8115H14.8108V17.4297H21.809C21.6679 18.5774 20.906 20.3058 19.2129 21.4672L19.1891 21.6219L22.9588 24.4838L23.2199 24.5093C25.6185 22.3384 27.0013 19.1443 27.0013 15.3557Z" fill="#4285F4"/>
<path d="M14.81 27.5238C18.2385 27.5238 21.1167 26.4176 23.2191 24.5095L19.212 21.4674C18.1397 22.2003 16.7006 22.7119 14.81 22.7119C11.452 22.7119 8.60192 20.541 7.58596 17.5405L7.43704 17.5529L3.51732 20.5258L3.46606 20.6654C5.55422 24.7306 9.84345 27.5238 14.81 27.5238Z" fill="#34A853"/>
<path d="M7.58667 17.5406C7.3186 16.7663 7.16346 15.9366 7.16346 15.0794C7.16346 14.222 7.3186 13.3924 7.57257 12.6181L7.56547 12.4532L3.59662 9.43262L3.46677 9.49315C2.60614 11.1801 2.1123 13.0744 2.1123 15.0794C2.1123 17.0843 2.60614 18.9786 3.46677 20.6655L7.58667 17.5406Z" fill="#FBBC05"/>
<path d="M14.81 7.44683C17.1945 7.44683 18.8029 8.45621 19.7201 9.29972L23.3038 5.87056C21.1028 3.86563 18.2386 2.63501 14.81 2.63501C9.84349 2.63501 5.55423 5.42807 3.46606 9.49323L7.57188 12.6182C8.60195 9.61772 11.452 7.44683 14.81 7.44683Z" fill="#EB4335"/>
</svg>
