<svg width="18" height="18" viewBox="0 0 18 18" fill="none" xmlns="http://www.w3.org/2000/svg">
<path d="M14.9262 8.31608L13.7551 7.14573V4.27762C13.7551 3.83339 13.3916 3.46992 12.9474 3.46992H12.1397C11.6954 3.46992 11.332 3.83339 11.332 4.27762V4.72427L9.71659 3.1105C9.49609 2.90212 9.29417 2.66223 8.9089 2.66223C8.52363 2.66223 8.32171 2.90212 8.10121 3.1105L2.89159 8.31608C2.63959 8.57858 2.44736 8.77 2.44736 9.12377C2.44736 9.5785 2.79628 9.93146 3.25505 9.93146H4.06275V14.7776C4.06275 15.2218 4.42621 15.5853 4.87044 15.5853H6.48582C6.9319 15.5853 7.29352 15.2237 7.29352 14.7776V11.5468C7.29352 11.1026 7.65698 10.7392 8.10121 10.7392H9.71659C10.1608 10.7392 10.5243 11.1026 10.5243 11.5468V14.7776C10.5243 15.2237 10.4821 15.5853 10.9281 15.5853H12.9474C13.3916 15.5853 13.7551 15.2218 13.7551 14.7776V9.93146H14.5627C15.0215 9.93146 15.3704 9.5785 15.3704 9.12377C15.3704 8.77 15.1782 8.57858 14.9262 8.31608Z" stroke="#087DEE" stroke-width="1.4359" stroke-linejoin="round"/>
</svg>
