<svg width="18" height="17" viewBox="0 0 18 17" fill="none" xmlns="http://www.w3.org/2000/svg">
<path d="M4.02684 6.67283C2.49661 7.41852 1.44222 8.98902 1.44222 10.8058C1.44222 13.3435 3.49942 15.4007 6.03709 15.4007C8.57477 15.4007 10.632 13.3435 10.632 10.8058C10.632 10.6113 10.6199 10.4196 10.5964 10.2314M9.19607 14.6054C9.93246 15.1073 10.8223 15.4007 11.7807 15.4007C14.3184 15.4007 16.3756 13.3435 16.3756 10.8058C16.3756 8.83176 15.1307 7.14847 13.3832 6.49811M13.5038 6.21093C13.5038 8.74861 11.4466 10.8058 8.90889 10.8058C6.37121 10.8058 4.31402 8.74861 4.31402 6.21093C4.31402 3.67325 6.37121 1.61606 8.90889 1.61606C11.4466 1.61606 13.5038 3.67325 13.5038 6.21093Z" stroke="black" stroke-width="1.4359"/>
</svg>
