<svg width="292" height="276" viewBox="0 0 292 276" fill="none" xmlns="http://www.w3.org/2000/svg">
<path d="M272.211 227.194L263.095 241.247C261.967 242.986 261.911 245.211 262.951 247.004V247.004C264.879 250.331 269.538 250.705 271.973 247.729L276.542 242.143L288.351 224.495C289.502 222.775 289.621 220.563 288.662 218.73V218.73C286.702 214.981 281.471 214.633 279.031 218.088L274.084 225.095" stroke="black" stroke-width="1.63241"/>
<rect x="4.61364" y="23.6136" width="267.393" height="248.286" rx="19.2713" fill="white"/>
<rect x="4.61364" y="23.6136" width="267.393" height="248.286" rx="19.2713" stroke="#F3F3F3" stroke-width="7.22727"/>
<rect x="0.5025" y="19.5025" width="275.615" height="255.869" rx="23.3825" stroke="#E2E2E4" stroke-width="0.994999"/>
<circle cx="25.0646" cy="29.0341" r="9.03409" stroke="#CBCBCB" stroke-width="3.41"/>
<rect x="17.0544" y="0.546613" width="16.0205" height="36.2852" rx="8.01023" fill="#FAFAFA" stroke="#E2E2E4" stroke-width="0.361364"/>
<path d="M268.495 234.676L264.492 239.911C263.178 241.629 263.029 243.97 264.114 245.842V245.842C265.992 249.081 270.532 249.437 272.891 246.53L277.169 241.259C277.362 241.022 277.285 240.668 277.012 240.532V240.532" stroke="black" stroke-width="1.63241"/>
</svg>
