<svg width="68" height="69" viewBox="0 0 68 69" fill="none" xmlns="http://www.w3.org/2000/svg">
<rect y="2.13452" width="66" height="66" rx="10.8908" transform="rotate(-1 0 2.13452)" fill="#D4E8FF"/>
<path d="M17.6534 25.9895C17.6077 23.3715 18.2423 21.0486 19.5572 19.0207C20.8721 16.9928 22.7061 15.4059 25.0594 14.26C27.4528 13.0725 30.2244 12.4513 33.3741 12.3963C36.4011 12.3435 39.0283 12.8296 41.2557 13.8545C43.5241 14.8788 45.289 16.362 46.5504 18.304C47.8528 20.2453 48.5684 22.5652 48.6973 25.2635L40.8435 25.4006C40.7281 23.4794 40.0067 21.9985 38.6792 20.9578C37.3509 19.8762 35.5823 19.3547 33.3735 19.3933C30.96 19.4354 29.0267 20.0215 27.5734 21.1517C26.1602 22.2402 25.4701 23.7253 25.5029 25.607C25.5308 27.2023 25.9824 28.4628 26.8579 29.3887C27.7735 30.2729 29.1761 30.9235 31.0656 31.3407L38.1496 32.8128C42.009 33.5638 44.897 34.925 46.8136 36.8966C48.7295 38.8272 49.7167 41.4696 49.7753 44.8238C49.8231 47.5645 49.1903 49.9897 47.8769 52.0994C46.5634 54.2092 44.669 55.8585 42.1938 57.0474C39.7588 58.1947 36.8846 58.7972 33.5712 58.8551C30.4215 58.91 27.6511 58.4265 25.2601 57.4043C22.8683 56.3413 20.9803 54.8398 19.5962 52.8999C18.2529 50.9593 17.5172 48.6603 17.389 46.0029L25.2428 45.8658C25.3165 47.7467 26.0789 49.2269 27.5299 50.3064C29.021 51.3442 31.0142 51.8414 33.5094 51.7978C36.1274 51.7521 38.1838 51.1843 39.6788 50.0943C41.2139 48.9628 41.9657 47.4971 41.9343 45.6972C41.9072 44.1428 41.4767 42.9228 40.6429 42.0372C39.8084 41.1106 38.4675 40.4793 36.6204 40.1433L29.475 38.6722C25.6565 37.9205 22.747 36.4983 20.7464 34.4055C18.7451 32.2718 17.7141 29.4664 17.6534 25.9895Z" fill="#007BFE"/>
</svg>
